<svg preserveAspectRatio="none" width="100%" height="100%" overflow="visible" style="display: block;" viewBox="0 0 48 48" fill="none" xmlns="http://www.w3.org/2000/svg">
<g id="&#229;&#162;&#158;&#229;&#138;&#160;&#229;&#177;&#158;&#230;&#128;&#167;&#230;&#140;&#137;&#233;&#146;&#174;">
<path id="Vector" d="M38 38V10H10V38H38ZM38 6C39.0609 6 40.0783 6.42143 40.8284 7.17157C41.5786 7.92172 42 8.93913 42 10V38C42 39.0609 41.5786 40.0783 40.8284 40.8284C40.0783 41.5786 39.0609 42 38 42H10C8.93913 42 7.92172 41.5786 7.17157 40.8284C6.42143 40.0783 6 39.0609 6 38V10C6 8.93913 6.42143 7.92172 7.17157 7.17157C7.92172 6.42143 8.93913 6 10 6H38ZM22 14H26V22H34V26H26V34H22V26H14V22H22V14Z" fill="var(--fill-0, white)"/>
</g>
</svg>
