<svg preserveAspectRatio="none" width="100%" height="100%" overflow="visible" style="display: block;" viewBox="0 0 56 56" fill="none" xmlns="http://www.w3.org/2000/svg">
<g id="&#232;&#175;&#173;&#232;&#168;&#128;&#229;&#136;&#135;&#230;&#141;&#162;&#230;&#140;&#137;&#233;&#146;&#174;">
<path id="Vector" d="M49.938 53.2L46.4436 44.8H34.7564L31.262 53.2028H25.2L38.0156 22.3888H43.1844L56 53.2H49.938ZM37.086 39.2H44.114L40.6 30.7496L37.086 39.2ZM21.3304 8.4H33.6V14H27.9748C27.6247 18.0296 26.2534 21.9035 23.9904 25.256C23.5424 25.9243 23.0496 26.5841 22.512 27.2356C23.6955 27.9207 24.9825 28.5843 26.3732 29.2264L28.9156 30.4024L26.5664 35.4872L24.0268 34.3112C22.0727 33.4159 20.1779 32.3965 18.354 31.2592C14.84 34.0004 10.2004 36.2992 4.1412 37.7272L1.4168 38.3656L0.1344 32.9168L2.8588 32.2728C7.4256 31.2004 10.9368 29.6016 13.6388 27.7704C9.212 23.8756 6.4876 19.2752 5.782 14H0V8.4H15.0696L13.0424 4.3484L18.0544 1.8424L21.3304 8.4ZM11.4632 14C12.1436 17.5896 14.1904 20.9692 17.8752 24.0408C20.3577 21.2304 21.9176 17.7255 22.344 14H11.4632Z" fill="var(--fill-0, white)"/>
</g>
</svg>
