<svg preserveAspectRatio="none" width="100%" height="100%" overflow="visible" style="display: block;" viewBox="0 0 81 81" fill="none" xmlns="http://www.w3.org/2000/svg">
<g id="&#229;&#188;&#128;&#229;&#167;&#139;&#230;&#150;&#176;&#228;&#186;&#186;&#231;&#148;&#159;&#229;&#155;&#190;&#230;&#160;&#135;" clip-path="url(#clip0_0_4)">
<path id="Vector" d="M20.25 -4.88281e-05V30.375H28.8562L29.8688 33.9187L30.8812 36.9562H31.3875L37.4625 33.9187L46.575 43.0312L43.5375 49.1062V49.6125L46.575 50.625L50.1187 51.6375V52.6499L81 35.4375L20.25 -4.88281e-05ZM22.7812 53.1562C21.7687 53.1562 20.7563 53.6625 20.25 54.1687C18.7312 55.1812 17.7188 56.7 17.7188 58.2187C17.7188 59.7375 18.7312 61.7625 20.25 62.2687C20.7563 62.775 21.7687 63.2812 22.7812 63.2812C25.8188 63.2812 27.8438 61.2562 27.8438 58.2187C27.8438 55.1812 25.8188 53.1562 22.7812 53.1562Z" fill="var(--fill-0, white)"/>
<path id="Vector_2" d="M45.5625 60.75V55.6875L39.9938 53.6625C39.4875 52.1437 38.9813 50.6249 37.9688 49.1062L40.5 44.0437L36.9563 40.5L31.8938 43.0312C30.375 42.0187 28.8563 41.5125 27.3375 41.0062L25.3125 35.4375H20.25L18.225 41.0062C16.7062 41.5125 15.1875 42.0187 13.6688 43.0312L8.60625 40.5L5.0625 44.0437L7.59375 49.6125C6.58125 51.1312 6.075 52.6499 5.56875 54.1687L0 55.6875V60.75L5.56875 62.7749C6.075 64.2937 6.58125 65.8125 7.59375 67.3312L5.0625 72.3937L8.60625 75.9375L14.175 73.4062C15.6937 74.4187 17.2125 74.9249 18.7313 75.4312L20.25 81H25.3125L27.3375 75.4312C28.8563 74.9249 30.375 74.4187 31.8938 73.4062L36.9563 75.9375L40.5 72.3937L37.9688 66.8249C38.9813 65.3062 39.4875 63.7875 39.9938 62.2687L45.5625 60.75ZM22.7813 68.3437C17.2125 68.3437 12.6563 63.7875 12.6563 58.2187C12.6563 52.65 17.2125 48.0937 22.7813 48.0937C28.35 48.0937 32.9063 52.65 32.9063 58.2187C32.9063 63.7875 28.35 68.3437 22.7813 68.3437Z" fill="var(--fill-0, white)"/>
</g>
<defs>
<clipPath id="clip0_0_4">
<rect width="81" height="81" fill="white"/>
</clipPath>
</defs>
</svg>
