<svg preserveAspectRatio="none" width="100%" height="100%" overflow="visible" style="display: block;" viewBox="0 0 44.4389 55" fill="none" xmlns="http://www.w3.org/2000/svg">
<g id="&#233;&#146;&#177;&#229;&#140;&#133;&#229;&#155;&#190;&#230;&#160;&#135;">
<path id="Vector" d="M37.4222 0C38.6628 0 39.8527 0.724328 40.7299 2.01364C41.6072 3.30295 42.1 5.05164 42.1 6.875V10.3125H28.0667C24.9651 10.3125 21.9906 12.1233 19.7974 15.3466C17.6043 18.5699 16.3722 22.9416 16.3722 27.5C16.3722 32.0584 17.6043 36.4301 19.7974 39.6534C21.9906 42.8767 24.9651 44.6875 28.0667 44.6875H42.1V48.125C42.1 49.9484 41.6072 51.697 40.7299 52.9864C39.8527 54.2757 38.6628 55 37.4222 55H4.67778C3.43715 55 2.24734 54.2757 1.37009 52.9864C0.492836 51.697 0 49.9484 0 48.125V6.875C0 5.05164 0.492836 3.30295 1.37009 2.01364C2.24734 0.724328 3.43715 0 4.67778 0H37.4222ZM39.7611 17.1875C41.0017 17.1875 42.1915 17.9118 43.0688 19.2011C43.9461 20.4905 44.4389 22.2391 44.4389 24.0625V30.9375C44.4389 32.7609 43.9461 34.5095 43.0688 35.7989C42.1915 37.0882 41.0017 37.8125 39.7611 37.8125H28.0667C26.2057 37.8125 24.421 36.726 23.1051 34.792C21.7893 32.8581 21.05 30.235 21.05 27.5C21.05 24.765 21.7893 22.1419 23.1051 20.208C24.421 18.274 26.2057 17.1875 28.0667 17.1875H39.7611ZM28.0667 24.0625C27.4464 24.0625 26.8514 24.4247 26.4128 25.0693C25.9742 25.714 25.7278 26.5883 25.7278 27.5C25.7278 28.4117 25.9742 29.286 26.4128 29.9307C26.8514 30.5753 27.4464 30.9375 28.0667 30.9375C28.687 30.9375 29.2819 30.5753 29.7205 29.9307C30.1591 29.286 30.4056 28.4117 30.4056 27.5C30.4056 26.5883 30.1591 25.714 29.7205 25.0693C29.2819 24.4247 28.687 24.0625 28.0667 24.0625Z" fill="var(--fill-0, white)"/>
</g>
</svg>
